<?xml version="1.0" encoding="UTF-8"?>
<svg id="Layer_2" data-name="Layer 2" xmlns="http://www.w3.org/2000/svg" xmlns:xlink="http://www.w3.org/1999/xlink" viewBox="0 0 451.72 447.87">
  <defs>
    <style>
      .cls-1 {
        clip-path: url(#clippath-2);
      }

      .cls-2 {
        fill: none;
        stroke-width: 0px;
      }

      .cls-3 {
        clip-path: url(#clippath-1);
      }

      .cls-4 {
        fill: red;
      }

      .cls-4, .cls-5 {
        stroke: #000;
        stroke-miterlimit: 10;
        stroke-width: 9px;
      }

      .cls-6 {
        clip-path: url(#clippath);
      }

      .cls-7 {
        clip-path: url(#clippath-3);
      }

      .cls-5 {
        fill: #fbb03b;
      }
    </style>
    <clipPath id="clippath">
      <rect class="cls-2" y="79.22" width="113" height="368.65"/>
    </clipPath>
    <clipPath id="clippath-1">
      <rect class="cls-2" x="113" y="79.22" width="113" height="368.65"/>
    </clipPath>
    <clipPath id="clippath-2">
      <rect class="cls-2" x="225.72" y="79.22" width="113" height="368.65"/>
    </clipPath>
    <clipPath id="clippath-3">
      <rect class="cls-2" x="338.72" y="79.22" width="113" height="368.65"/>
    </clipPath>
  </defs>
  <g id="Layer_1-2" data-name="Layer 1">
    <g>
      <g>
        <g id="_Mirror_Repeat_" data-name="&amp;lt;Mirror Repeat&amp;gt;">
          <g class="cls-6">
            <path class="cls-5" d="m9.85,124.08l85.57-39.49c6.11-2.82,13.08,1.64,13.08,8.37v301.7c0,3.59-2.09,6.86-5.35,8.37l-85.57,39.49c-6.11,2.82-13.08-1.64-13.08-8.37V132.44c0-3.59,2.09-6.86,5.35-8.37Z"/>
          </g>
        </g>
        <g id="_Mirror_Repeat_-2" data-name="&amp;lt;Mirror Repeat&amp;gt;">
          <g class="cls-3">
            <path class="cls-5" d="m216.15,124.08l-85.57-39.49c-6.11-2.82-13.08,1.64-13.08,8.37v301.7c0,3.59,2.09,6.86,5.35,8.37l85.57,39.49c6.11,2.82,13.08-1.64,13.08-8.37V132.44c0-3.59-2.09-6.86-5.35-8.37Z"/>
          </g>
        </g>
      </g>
      <g>
        <g id="_Mirror_Repeat_-3" data-name="&amp;lt;Mirror Repeat&amp;gt;">
          <g class="cls-1">
            <path class="cls-5" d="m235.58,124.08l85.57-39.49c6.11-2.82,13.08,1.64,13.08,8.37v301.7c0,3.59-2.09,6.86-5.35,8.37l-85.57,39.49c-6.11,2.82-13.08-1.64-13.08-8.37V132.44c0-3.59,2.09-6.86,5.35-8.37Z"/>
          </g>
        </g>
        <g id="_Mirror_Repeat_-4" data-name="&amp;lt;Mirror Repeat&amp;gt;">
          <g class="cls-7">
            <path class="cls-5" d="m441.87,124.08l-85.57-39.49c-6.11-2.82-13.08,1.64-13.08,8.37v301.7c0,3.59,2.09,6.86,5.35,8.37l85.57,39.49c6.11,2.82,13.08-1.64,13.08-8.37V132.44c0-3.59-2.09-6.86-5.35-8.37Z"/>
          </g>
        </g>
      </g>
      <g>
        <path class="cls-4" d="m310.06,37.24c10.8,26.61-4.24,116.44-4.24,116.44,0,0-79-51.64-89.8-78.25-10.8-26.61,1.49-56.72,27.46-67.27,25.97-10.54,55.78,2.48,66.58,29.08Z"/>
        <circle class="cls-4" cx="262.14" cy="53.46" r="22.36"/>
      </g>
    </g>
  </g>
</svg>